<?xml version="1.0" encoding="utf-8"?>
<!-- Generator: Adobe Illustrator 19.2.1, SVG Export Plug-In . SVG Version: 6.00 Build 0)  -->
<svg version="1.1" id="layer" xmlns="http://www.w3.org/2000/svg" xmlns:xlink="http://www.w3.org/1999/xlink" x="0px" y="0px"
	 viewBox="0 0 652 652" style="enable-background:new 0 0 652 652;" xml:space="preserve">
<style type="text/css">
	.st0{fill:#0079BF;}
</style>
<g>
	<path class="st0" d="M442.7,347.5c-57.3,11.2-111.7,19-162.6,23.2V171.3h-13.3L122.8,371.5c-9.9-0.9-19.6-1.9-29.1-3.2
		c0,0-103.6-17.4,65.1-62c23.1-6.1-7-5.7-17.9-4.6c-48.5,4.9-194.1,68-27.1,82.3l-35,48.7c0,0-13.1,18.9-14,19.9
		c-3.6,4.1-8.1,15.7-25.3,14.7v12.4h78.8v-12.4c0,0-28.6-2-16.8-23.8l40.3-57.7c21.4,1,46.6,1.3,76.2,0.9
		c11.6-0.2,23.6-0.7,35.7-1.6v53c-0.2,5.9,4.7,28.9-26.5,28.9v12.7l75,0.1c0,0,0-12.7,0-12.8c-2.8-0.1-22.7,4.6-21.9-28.9v-55.4
		c92.3-9.9,184.1-34.7,184.7-36.7C464.9,345.9,469.9,342.2,442.7,347.5 M150.3,373.4l103.3-147.9v147.1
		C217.2,374.8,182.6,375,150.3,373.4"/>
	<path class="st0" d="M321.5,419.1c0-8.7-0.3-15.6-0.7-22.4H334l0.7,13.5h0.5c4.6-7.9,12.3-15.2,26.2-15.2
		c11.1,0,19.7,6.9,23.3,16.6h0.3c2.6-4.8,6-8.2,9.4-10.8c5-3.8,10.3-5.8,18.2-5.8c11.1,0,27.4,7.2,27.4,36v48.6h-14.7v-46.8
		c0-16.1-6-25.5-18-25.5c-8.7,0-15.9,5.3-18.6,12.5c-0.7,2.2-0.6,6.2-0.6,8.5v51.2h-14.7v-49.7c0-13.2-5.8-22.6-17.3-22.6
		c-9.2,0-16.8,6.1-19.2,13.6c-0.9,2.1-0.7,6.2-0.7,8.8v49.8h-14.7V419.1z"/>
	<rect x="456.5" y="396.8" class="st0" width="13.8" height="82.9"/>
	<path class="st0" d="M548.8,475.7c-3.9,1.9-12.7,4.8-23.8,4.8c-25,0-41.3-17-41.3-42.3c0-25.5,17.5-44.2,44.5-44.2
		c8.9,0,16.8,2.2,20.9,4.4l-3.4,13.5c-3.6-1.9-9-6.8-17.2-6.8c-19,0-29.6,15-29.6,32.1c0,19.2,12.8,31.6,29.2,31.6
		c8.6,0,13.8-5.1,18.1-7L548.8,475.7z"/>
	<path class="st0" d="M635.8,436.4c0,30.7-21.4,44-41.3,44c-22.3,0-39.7-16.4-39.7-42.6c0-27.6,18.3-43.8,41.1-43.8
		C619.7,393.9,635.8,411.2,635.8,436.4 M570.2,437.3c0,18.2,8.6,31.8,25,31.9c17.4,0.1,25.2-13.5,25.2-32.2c0-14-4-31.9-24.8-31.7
		C574.6,405.5,570.2,421.7,570.2,437.3"/>
</g>
</svg>
